<?xml version="1.0" standalone="no"?>
<!DOCTYPE svg PUBLIC "-//W3C//DTD SVG 20010904//EN"
 "http://www.w3.org/TR/2001/REC-SVG-20010904/DTD/svg10.dtd">
<svg version="1" xmlns="http://www.w3.org/2000/svg" 
  width="28pt" height="28pt" viewBox="0 0 384 384" preserveAspectRatio="xMidYMid meet">
<g transform="matrix(0.1,0,0,-0.1,0,384)"
fill="#ffffff" stroke="none">
<path transform="matrix(1,0,0,1,397.7,-719)" d="M -75.6 4516.4 c -7 -8 -27 -15 -45 -15 c -18 0 -38 -7 -45 -15 c -7 -8 -20 -15 -29 -15 c -21 0 -91 -70 -91 -92 c 0 -8 -7 -21 -15 -28 c -8 -7 -15 -20 -15 -30 c 0 -10 -7 -23 -15 -30 c -13 -11 -15 -203 -15 -1620 c 0 -1417 2 -1609 15 -1620 c 8 -7 15 -27 15 -44 c 0 -26 13 -44 68 -99 c 54 -54 74 -67 99 -67 c 17 0 36 -7 43 -15 c 11 -13 203 -15 1620 -15 c 1417 0 1609 2 1620 15 c 7 8 27 15 44 15 c 25 0 43 11 84 53 c 29 29 52 60 52 69 c 0 8 7 21 15 28 c 13 11 15 210 15 1679 l 0 1666 l -83 83 c -79 79 -84 82 -128 82 c -29 0 -51 6 -59 15 c -11 13 -198 15 -1575 15 c -1377 0 -1564 -2 -1575 -15 z m 2617 -127 c 13 -12 23 -29 23 -38 c 0 -8 27 -42 60 -75 c 33 -33 60 -66 60 -75 c 0 -9 20 -36 45 -60 c 25 -24 45 -51 45 -60 c 0 -9 20 -36 45 -60 c 25 -24 45 -51 45 -60 c 0 -9 27 -42 60 -75 c 33 -33 60 -66 60 -75 c 0 -9 27 -42 60 -75 c 33 -33 60 -66 60 -75 c 0 -9 -27 -42 -60 -75 c -33 -33 -60 -66 -60 -75 c 0 -20 -370 -390 -390 -390 c -9 0 -36 -20 -60 -45 c -24 -25 -51 -45 -60 -45 c -9 0 -29 -13 -45 -30 c -16 -16 -36 -30 -45 -30 c -9 0 -29 -13 -45 -30 c -16 -16 -36 -30 -45 -30 c -9 0 -29 -13 -45 -30 c -16 -17 -36 -30 -46 -30 c -9 0 -22 -7 -29 -15 c -29 -35 -120 -1 -120 45 c 0 8 -27 42 -60 75 c -33 33 -60 66 -60 75 c 0 9 -27 42 -60 75 c -33 33 -60 66 -60 75 c 0 9 -27 42 -60 75 c -33 33 -60 66 -60 75 c 0 9 -27 42 -60 75 c -33 33 -60 67 -60 75 c 0 9 -13 29 -30 45 c -16 16 -30 35 -30 44 c 0 21 40 61 61 61 c 9 0 22 7 29 15 c 7 8 20 15 30 15 c 10 0 23 7 30 15 c 7 8 20 15 29 15 c 10 0 30 14 46 30 c 16 17 36 30 45 30 c 9 0 36 20 60 45 c 24 25 51 45 60 45 c 9 0 36 20 60 45 c 24 25 51 45 59 45 c 21 0 241 220 241 241 c 0 20 39 56 65 61 c 11 2 21 12 23 23 c 5 25 131 155 151 155 c 8 0 25 -10 38 -22 z m -2167 -203 c 8 -9 30 -15 60 -15 c 30 0 52 -6 60 -15 c 8 -9 30 -15 60 -15 c 30 0 52 -6 60 -15 c 7 -8 20 -15 30 -15 c 10 0 23 -7 30 -15 c 7 -8 27 -15 44 -15 c 23 0 41 -9 61 -30 c 16 -16 36 -30 46 -30 c 9 0 22 -7 29 -15 c 7 -8 20 -15 29 -15 c 10 0 30 -13 46 -30 c 16 -16 36 -30 45 -30 c 9 0 36 -20 60 -45 c 24 -25 51 -45 59 -45 c 20 0 181 -160 181 -179 c 0 -27 -42 -61 -76 -61 c -17 0 -37 -7 -44 -15 c -9 -10 -32 -15 -75 -15 c -43 0 -66 -5 -75 -15 c -10 -12 -45 -15 -195 -15 c -150 0 -185 3 -195 15 c -9 10 -32 15 -75 15 c -43 0 -66 5 -75 15 c -7 8 -27 15 -45 15 c -18 0 -38 7 -45 15 c -8 9 -30 15 -60 15 c -30 0 -52 6 -60 15 c -7 8 -20 15 -30 15 c -10 0 -23 7 -30 15 c -7 8 -20 15 -30 15 c -10 0 -23 7 -30 15 c -7 8 -20 15 -30 15 c -10 0 -23 7 -30 15 c -7 8 -20 15 -29 15 c -21 0 -271 250 -271 271 c 0 9 -7 22 -16 29 c -10 9 -14 26 -12 49 c 3 34 5 36 40 39 c 20 2 42 10 48 18 c 9 9 33 14 75 14 c 43 0 66 5 75 15 c 10 12 45 15 195 15 c 150 0 185 -3 195 -15 z m -575 -382 c 19 -21 35 -45 35 -53 c 0 -9 20 -36 45 -60 c 25 -24 45 -51 45 -60 c 0 -9 27 -42 60 -75 c 33 -33 60 -66 60 -75 c 0 -9 27 -42 60 -75 c 64 -63 75 -97 33 -103 c -12 -2 -27 -10 -33 -18 c -7 -8 -20 -14 -30 -14 c -10 0 -23 -7 -30 -15 c -7 -8 -20 -15 -30 -15 c -10 0 -23 -7 -30 -15 c -7 -8 -20 -15 -29 -15 c -9 0 -37 -20 -61 -45 c -24 -25 -52 -45 -61 -45 c -9 0 -22 -7 -29 -15 c -7 -9 -23 -15 -34 -13 c -21 3 -21 6 -24 376 c -1 243 1 372 8 372 c 5 0 25 -17 45 -37 z m 380 -233 c 20 -21 38 -30 61 -30 c 17 0 37 -7 44 -15 c 7 -8 27 -15 45 -15 c 18 0 38 -7 45 -15 c 7 -8 27 -15 45 -15 c 18 0 38 -7 45 -15 c 9 -10 32 -15 75 -15 c 43 0 66 -5 75 -15 c 10 -12 47 -15 210 -15 c 163 0 200 3 210 15 c 9 10 32 15 75 15 c 43 0 66 5 75 15 c 7 8 27 15 45 15 c 18 0 38 7 45 15 c 8 9 30 15 58 15 c 44 0 50 -4 114 -67 c 38 -37 68 -75 68 -83 c 0 -9 20 -36 45 -60 c 25 -24 45 -51 45 -60 c 0 -9 20 -36 45 -60 c 25 -24 45 -51 45 -60 c 0 -8 34 -49 75 -90 c 41 -41 75 -82 75 -90 c 0 -9 27 -42 60 -75 c 54 -53 60 -64 58 -95 c -3 -32 -6 -35 -40 -38 c -20 -2 -42 -10 -48 -18 c -10 -11 -38 -14 -120 -14 c -83 0 -110 -3 -120 -15 c -10 -12 -38 -15 -135 -15 c -97 0 -125 3 -135 15 c -10 12 -37 15 -120 15 c -83 0 -110 3 -120 15 c -8 9 -30 15 -60 15 c -30 0 -52 6 -60 15 c -7 8 -20 15 -30 15 c -10 0 -23 7 -30 15 c -7 8 -20 15 -30 15 c -10 0 -23 7 -30 15 c -7 8 -27 15 -45 15 c -18 0 -38 7 -45 15 c -7 8 -20 15 -30 15 c -10 0 -23 7 -30 15 c -7 8 -20 15 -28 15 c -21 0 -92 70 -92 90 c 0 9 -27 42 -60 75 c -33 33 -60 66 -60 75 c 0 9 -27 42 -60 75 c -33 33 -60 66 -60 75 c 0 8 -34 49 -75 90 c -41 41 -75 82 -75 91 c 0 9 -27 42 -60 73 c -33 32 -60 62 -60 67 c 0 20 48 7 75 -21 z m 3052 -52 l 23 -21 l 0 -601 l 0 -600 l -22 -23 c -12 -13 -29 -23 -38 -23 c -9 0 -36 -20 -60 -45 c -24 -25 -51 -45 -60 -45 c -9 0 -36 -20 -60 -45 c -24 -25 -52 -45 -61 -45 c -9 0 -22 -7 -29 -15 c -7 -8 -20 -15 -30 -15 c -10 0 -23 -7 -30 -15 c -7 -8 -20 -15 -30 -15 c -10 0 -23 -7 -30 -15 c -7 -8 -19 -15 -28 -15 c -21 0 -62 39 -62 60 c 0 9 -20 36 -45 60 c -25 24 -45 51 -45 60 c 0 9 -20 36 -45 60 c -25 24 -45 51 -45 60 c 0 8 -34 49 -75 90 c -41 41 -75 82 -75 90 c 0 9 -27 42 -60 75 c -33 33 -60 67 -60 75 c 0 9 -14 29 -30 45 c -35 34 -37 68 -3 73 c 12 2 27 10 33 18 c 7 8 20 14 29 14 c 10 0 30 14 46 30 c 16 17 36 30 45 30 c 9 0 29 14 45 30 c 16 17 36 30 46 30 c 9 0 22 7 29 15 c 7 8 20 15 29 15 c 9 0 36 20 61 45 c 24 24 52 45 64 47 c 12 2 23 13 26 28 c 3 14 14 26 25 28 c 25 5 395 371 395 391 c 0 20 70 91 89 91 c 8 0 25 -10 38 -22 z m -2949 -334 c 2 -11 23 -40 47 -64 c 25 -25 45 -51 45 -60 c 0 -9 20 -36 45 -60 c 25 -24 45 -51 45 -60 c 0 -8 34 -49 75 -90 c 41 -41 75 -82 75 -90 c 0 -9 14 -29 30 -45 c 17 -16 30 -36 30 -45 c 0 -9 34 -49 75 -89 c 41 -40 75 -75 75 -78 c 0 -10 -46 -42 -61 -43 c -9 0 -22 -7 -29 -15 c -7 -8 -20 -15 -30 -15 c -10 0 -23 -7 -30 -15 c -7 -8 -20 -15 -29 -15 c -10 0 -30 -13 -46 -30 c -16 -16 -36 -30 -45 -30 c -9 0 -29 -14 -45 -30 c -16 -17 -36 -30 -45 -30 c -9 0 -36 -20 -60 -45 c -24 -25 -51 -45 -60 -45 c -19 0 -480 -460 -480 -480 c -1 -15 -33 -60 -44 -60 c -3 0 -21 17 -41 37 l -34 38 l -1 585 l 0 584 l 37 38 c 20 21 44 38 53 38 c 9 0 29 14 45 30 c 16 17 36 30 45 30 c 9 0 29 14 45 30 c 16 17 36 30 45 30 c 9 0 29 14 45 30 c 16 17 36 30 46 30 c 9 0 22 7 29 15 c 7 8 20 15 30 15 c 10 0 23 7 30 16 c 20 23 84 15 88 -12 z m 602 -499 c 7 -8 20 -15 30 -15 c 10 0 23 -7 30 -15 c 7 -8 20 -15 30 -15 c 10 0 23 -7 30 -15 c 8 -9 30 -15 60 -15 c 30 0 52 -6 60 -15 c 8 -9 30 -15 60 -15 c 30 0 52 -6 60 -15 c 10 -13 53 -15 270 -15 c 217 0 260 2 270 15 c 9 10 32 15 75 15 c 43 0 66 5 75 15 c 7 8 27 15 45 15 c 18 0 38 7 45 15 c 7 8 20 15 28 15 c 21 0 122 -100 122 -120 c 0 -9 27 -42 60 -75 c 33 -33 60 -66 60 -75 c 0 -9 20 -36 45 -60 c 25 -24 45 -51 45 -60 c 0 -9 27 -42 60 -75 c 33 -33 60 -67 60 -75 c 0 -9 34 -49 75 -89 c 41 -40 75 -77 75 -82 c 0 -5 -11 -9 -24 -9 c -13 0 -29 -7 -36 -15 c -8 -9 -30 -15 -60 -15 c -30 0 -52 -6 -60 -15 c -9 -10 -32 -15 -75 -15 c -43 0 -66 -5 -75 -15 c -18 -22 -342 -22 -360 0 c -9 10 -32 15 -75 15 c -43 0 -66 5 -75 15 c -8 9 -30 15 -60 15 c -30 0 -52 6 -60 15 c -7 8 -27 15 -45 15 c -18 0 -38 7 -45 15 c -7 8 -20 15 -30 15 c -10 0 -23 7 -30 15 c -7 8 -20 15 -30 15 c -10 0 -23 7 -30 15 c -7 8 -20 15 -30 15 c -10 0 -23 7 -30 15 c -7 8 -20 15 -29 15 c -20 0 -181 160 -181 180 c 0 8 -47 62 -105 120 c -58 58 -105 112 -105 120 c 0 9 -20 36 -45 60 c -25 24 -45 52 -45 61 c 0 9 -20 35 -45 58 c -25 23 -45 46 -45 51 c 0 16 46 12 60 -5 z m 58 -341 c 2 -11 23 -40 47 -64 c 25 -25 45 -51 45 -60 c 0 -9 20 -36 45 -60 c 25 -24 45 -51 45 -60 c 0 -9 27 -42 60 -75 c 33 -33 60 -66 60 -75 c 0 -9 27 -42 60 -75 c 33 -33 60 -67 60 -75 c 0 -9 14 -29 30 -45 c 35 -34 37 -68 3 -73 c -12 -2 -27 -10 -33 -18 c -7 -8 -20 -14 -29 -14 c -10 0 -30 -13 -46 -30 c -16 -16 -36 -30 -46 -30 c -9 0 -22 -7 -29 -15 c -7 -8 -20 -15 -29 -15 c -9 0 -37 -20 -61 -45 c -24 -25 -51 -45 -60 -45 c -9 0 -29 -14 -45 -30 c -16 -17 -36 -30 -44 -30 c -20 0 -451 -430 -451 -449 c 0 -8 -10 -25 -22 -38 c -43 -46 -158 -19 -158 37 c 0 9 -20 36 -45 60 c -25 24 -45 51 -45 60 c 0 9 -20 36 -45 60 c -25 24 -45 51 -45 60 c 0 9 -20 36 -45 60 c -25 24 -45 51 -45 60 c 0 9 -27 42 -60 75 c -33 33 -60 67 -60 76 c 0 10 -13 29 -30 42 c -33 29 -37 42 -15 51 c 8 3 15 13 15 23 c 0 10 61 79 135 153 c 74 73 135 143 137 154 c 2 12 13 23 28 26 c 15 4 26 15 30 30 c 3 15 14 26 26 28 c 12 2 40 23 64 47 c 25 25 51 45 60 45 c 9 0 36 20 60 45 c 24 25 51 45 60 45 c 9 0 36 20 60 45 c 24 25 52 45 61 45 c 9 0 22 7 29 15 c 7 8 20 15 30 15 c 10 0 23 7 30 15 c 7 8 20 15 29 15 c 10 0 30 14 46 30 c 26 28 35 31 80 28 c 42 -3 50 -6 53 -24 z m 2312 -589 c 0 -240 -4 -375 -10 -375 c -15 0 -79 73 -80 91 c 0 8 -13 28 -30 44 c -16 16 -30 36 -30 45 c 0 8 -27 42 -60 75 c -33 33 -60 66 -60 75 c 0 9 -27 42 -60 75 c -64 63 -75 97 -34 103 c 12 2 34 16 49 33 c 16 16 36 29 46 29 c 9 0 22 7 29 15 c 7 8 20 15 29 15 c 10 0 30 14 46 30 c 16 17 36 30 46 30 c 9 0 34 20 55 44 c 22 24 45 45 52 45 c 9 1 12 -80 12 -374 z m -1680 90 c 7 -8 20 -15 30 -15 c 10 0 23 -7 30 -15 c 7 -8 20 -15 30 -15 c 10 0 23 -7 30 -15 c 7 -8 27 -15 45 -15 c 18 0 38 -7 45 -15 c 9 -10 32 -15 75 -15 c 43 0 66 -5 75 -15 c 19 -22 461 -22 480 0 c 9 10 32 15 75 15 c 43 0 66 5 75 15 c 7 8 27 15 45 15 c 18 0 38 7 45 15 c 7 8 21 15 32 15 c 10 0 21 7 24 15 c 4 8 11 15 16 15 c 14 0 47 -42 48 -60 c 0 -9 20 -36 45 -60 c 25 -24 45 -51 45 -60 c 0 -9 27 -42 60 -75 c 33 -33 60 -66 60 -75 c 0 -8 34 -49 75 -90 c 41 -41 75 -82 75 -91 c 0 -9 27 -42 60 -73 c 33 -32 60 -62 60 -67 c 0 -5 -11 -9 -24 -9 c -13 0 -29 -7 -36 -15 c -8 -9 -30 -15 -60 -15 c -30 0 -52 -6 -60 -15 c -8 -9 -30 -15 -60 -15 c -30 0 -52 -6 -60 -15 c -18 -22 -342 -22 -360 0 c -9 10 -32 15 -75 15 c -43 0 -66 5 -75 15 c -8 9 -30 15 -60 15 c -30 0 -52 6 -60 15 c -7 8 -20 15 -30 15 c -10 0 -23 7 -30 15 c -7 8 -27 15 -44 15 c -23 0 -41 9 -61 30 c -20 21 -38 30 -60 30 c -22 0 -40 9 -60 30 c -16 17 -36 30 -45 30 c -9 0 -29 14 -45 30 c -16 17 -36 30 -45 30 c -9 0 -36 20 -60 45 c -24 25 -51 45 -59 45 c -20 0 -61 40 -61 60 c 0 9 -20 36 -45 60 c -25 24 -45 51 -45 60 c 0 9 -27 42 -60 75 c -33 33 -60 68 -60 78 c 0 9 -7 20 -15 23 c -8 4 -15 12 -15 20 c 0 20 74 19 90 -1 z m -1680 -900 c 0 -8 -7 -15 -15 -15 c -8 0 -15 7 -15 15 c 0 8 7 15 15 15 c 8 0 15 -7 15 -15 z"/>
</g>
</svg>
