<?xml version="1.0" standalone="no"?>
<!DOCTYPE svg PUBLIC "-//W3C//DTD SVG 20010904//EN"
 "http://www.w3.org/TR/2001/REC-SVG-20010904/DTD/svg10.dtd">
<svg version="1.0" xmlns="http://www.w3.org/2000/svg"
 width="32.000000pt" height="32.000000pt" viewBox="0 0 32.000000 32.000000"
 preserveAspectRatio="xMidYMid meet">
<metadata>
Created by potrace 1.15, written by Peter Selinger 2001-2017
</metadata>
<g transform="translate(6.000000,6.000000) scale(0.015700,0.0157000)"
fill="#000000" stroke="none">
<path d="M58 1264 c-59 -31 -58 -22 -58 -624 0 -473 2 -555 15 -580 32 -61 20
-60 630 -60 l555 0 38 34 37 34 3 557 c3 613 3 608 -59 640 -42 22 -1121 21
-1161 -1z m1130 -15 c64 -22 62 -2 62 -609 l0 -552 -29 -29 -29 -29 -555 0
-554 0 -25 25 c-14 14 -28 39 -32 56 -11 59 -7 1044 5 1078 7 18 26 41 43 52
29 18 58 19 557 19 349 0 536 -4 557 -11z"/>
<path d="M79 1204 l-24 -26 35 21 c37 22 150 31 150 11 0 -6 -31 -50 -70 -99
-38 -48 -70 -92 -70 -97 0 -5 25 -37 55 -71 59 -66 174 -157 242 -191 l42 -22
90 117 91 117 -50 27 c-91 50 -250 189 -250 219 0 6 147 10 418 10 350 0 422
-3 447 -15 l30 -15 -24 20 c-23 19 -38 20 -555 20 l-533 0 -24 -26z"/>
<path d="M930 1151 c-65 -21 -122 -49 -170 -86 -33 -25 -142 -156 -135 -163 2
-2 17 4 34 12 90 47 261 57 349 21 36 -16 38 -15 57 8 54 65 144 183 145 192
2 15 -88 35 -160 34 -36 0 -90 -8 -120 -18z"/>
<path d="M1156 1001 c-32 -40 -59 -79 -60 -87 0 -7 26 -31 59 -53 l60 -40 3
59 c2 33 2 89 0 126 l-3 68 -59 -73z"/>
<path d="M57 973 c-4 -3 -7 -99 -7 -212 l1 -206 47 -31 c59 -40 111 -66 121
-62 4 2 49 55 100 118 85 106 91 116 74 128 -10 7 -53 35 -95 63 -46 29 -108
84 -150 130 -74 80 -79 84 -91 72z"/>
<path d="M727 905 c-118 -32 -174 -80 -311 -261 l-19 -25 39 17 c104 45 210
54 326 28 38 -9 73 -12 77 -8 35 41 176 228 174 233 -8 27 -204 39 -286 16z"/>
<path d="M962 755 c-51 -63 -92 -118 -92 -123 0 -5 33 -29 73 -55 75 -47 170
-132 224 -200 49 -61 54 -41 51 194 l-3 204 -69 47 c-38 27 -75 48 -81 48 -6
0 -53 -52 -103 -115z"/>
<path d="M503 625 c-82 -23 -145 -59 -183 -106 -79 -96 -148 -184 -146 -186 1
-1 31 8 66 21 95 35 171 41 260 21 41 -9 80 -17 86 -18 6 -1 48 45 95 102 135
167 123 148 98 162 -35 18 -215 21 -276 4z"/>
<path d="M731 464 l-101 -126 77 -48 c48 -29 113 -84 167 -139 49 -50 92 -91
97 -91 4 0 51 56 104 125 69 90 94 129 88 140 -16 28 -133 144 -190 188 -58
44 -114 77 -132 77 -5 0 -55 -57 -110 -126z"/>
<path d="M50 373 c0 -75 2 -134 4 -132 44 50 136 184 128 187 -6 2 -38 21 -71
42 l-61 40 0 -137z"/>
<path d="M245 322 c-99 -35 -101 -36 -153 -93 -57 -63 -56 -84 4 -93 173 -23
299 16 426 133 l53 49 -30 13 c-16 6 -73 14 -125 16 -85 3 -104 1 -175 -25z"/>
</g>
</svg>
